<mxfile host="app.diagrams.net">
  <diagram name="AI+CMS系统功能结构图" id="UQMH6iQK6OLNVwAThNzL">
    <mxGraphModel dx="1462" dy="861" grid="1" gridSize="10" guides="1" tooltips="1" connect="1" arrows="1" fold="1" page="1" pageScale="1" pageWidth="827" pageHeight="1169" math="0" shadow="0">
      <root>
        <mxCell id="0"/>
        <mxCell id="1" parent="0"/>
        
        <!-- 后台管理系统 -->
        <mxCell id="2" value="后台管理系统" style="rounded=1;whiteSpace=wrap;html=1;fillColor=#dae8fc;" vertex="1" parent="1">
          <mxGeometry x="80" y="80" width="140" height="60" as="geometry"/>
        </mxCell>
        <mxCell id="3" value="页面管理" style="rounded=1;whiteSpace=wrap;html=1;fillColor=#ffffff;" vertex="1" parent="1">
          <mxGeometry x="80" y="160" width="100" height="40" as="geometry"/>
        </mxCell>
        <mxCell id="4" value="权限管理" style="rounded=1;whiteSpace=wrap;html=1;fillColor=#ffffff;" vertex="1" parent="1">
          <mxGeometry x="200" y="160" width="100" height="40" as="geometry"/>
        </mxCell>
        <mxCell id="5" value="内容管理" style="rounded=1;whiteSpace=wrap;html=1;fillColor=#ffffff;" vertex="1" parent="1">
          <mxGeometry x="140" y="210" width="100" height="40" as="geometry"/>
        </mxCell>

        <!-- AI服务模块 -->
        <mxCell id="6" value="AI服务模块" style="rounded=1;whiteSpace=wrap;html=1;fillColor=#d5e8d4;" vertex="1" parent="1">
          <mxGeometry x="380" y="80" width="140" height="60" as="geometry"/>
        </mxCell>
        <mxCell id="7" value="单页生成" style="rounded=1;whiteSpace=wrap;html=1;" vertex="1" parent="1">
          <mxGeometry x="380" y="160" width="100" height="40" as="geometry"/>
        </mxCell>
        <mxCell id="8" value="关键词生成" style="rounded=1;whiteSpace=wrap;html=1;" vertex="1" parent="1">
          <mxGeometry x="500" y="160" width="100" height="40" as="geometry"/>
        </mxCell>
        <mxCell id="9" value="内容抓取生成" style="rounded=1;whiteSpace=wrap;html=1;" vertex="1" parent="1">
          <mxGeometry x="440" y="210" width="100" height="40" as="geometry"/>
        </mxCell>

        <!-- 用户系统 -->
        <mxCell id="10" value="用户系统" style="rounded=1;whiteSpace=wrap;html=1;fillColor=#ffe6cc;" vertex="1" parent="1">
          <mxGeometry x="660" y="80" width="140" height="60" as="geometry"/>
        </mxCell>
        <mxCell id="11" value="注册/登录" style="rounded=1;whiteSpace=wrap;html=1;" vertex="1" parent="1">
          <mxGeometry x="660" y="160" width="100" height="40" as="geometry"/>
        </mxCell>
        <mxCell id="12" value="个人信息" style="rounded=1;whiteSpace=wrap;html=1;" vertex="1" parent="1">
          <mxGeometry x="780" y="160" width="100" height="40" as="geometry"/>
        </mxCell>
        <mxCell id="13" value="权限控制" style="rounded=1;whiteSpace=wrap;html=1;" vertex="1" parent="1">
          <mxGeometry x="720" y="210" width="100" height="40" as="geometry"/>
        </mxCell>

        <!-- 前端展示系统 -->
        <mxCell id="14" value="前端展示系统" style="rounded=1;whiteSpace=wrap;html=1;fillColor=#f8cecc;" vertex="1" parent="1">
          <mxGeometry x="200" y="330" width="140" height="60" as="geometry"/>
        </mxCell>
        <mxCell id="15" value="页面渲染" style="rounded=1;whiteSpace=wrap;html=1;" vertex="1" parent="1">
          <mxGeometry x="160" y="410" width="100" height="40" as="geometry"/>
        </mxCell>
        <mxCell id="16" value="响应式布局" style="rounded=1;whiteSpace=wrap;html=1;" vertex="1" parent="1">
          <mxGeometry x="280" y="410" width="100" height="40" as="geometry"/>
        </mxCell>

        <!-- 数据存储模块 -->
        <mxCell id="17" value="数据存储模块" style="rounded=1;whiteSpace=wrap;html=1;fillColor=#e1d5e7;" vertex="1" parent="1">
          <mxGeometry x="500" y="330" width="140" height="60" as="geometry"/>
        </mxCell>
        <mxCell id="18" value="MySQL" style="rounded=1;whiteSpace=wrap;html=1;" vertex="1" parent="1">
          <mxGeometry x="480" y="410" width="100" height="40" as="geometry"/>
        </mxCell>
        <mxCell id="19" value="文件存储" style="rounded=1;whiteSpace=wrap;html=1;" vertex="1" parent="1">
          <mxGeometry x="600" y="410" width="100" height="40" as="geometry"/>
        </mxCell>

        <!-- 连线 -->
        <mxCell id="20" style="endArrow=block;html=1;rounded=1;" edge="1" parent="1" source="2" target="6"><mxGeometry relative="1" as="geometry"/></mxCell>
        <mxCell id="21" style="endArrow=block;html=1;rounded=1;" edge="1" parent="1" source="6" target="10"><mxGeometry relative="1" as="geometry"/></mxCell>
        <mxCell id="22" style="endArrow=block;html=1;rounded=1;" edge="1" parent="1" source="2" target="14"><mxGeometry relative="1" as="geometry"/></mxCell>
        <mxCell id="23" style="endArrow=block;html=1;rounded=1;" edge="1" parent="1" source="14" target="17"><mxGeometry relative="1" as="geometry"/></mxCell>
        <mxCell id="24" style="endArrow=block;html=1;rounded=1;" edge="1" parent="1" source="10" target="17"><mxGeometry relative="1" as="geometry"/></mxCell>
        <mxCell id="25" style="endArrow=block;html=1;rounded=1;" edge="1" parent="1" source="6" target="17"><mxGeometry relative="1" as="geometry"/></mxCell>
      </root>
    </mxGraphModel>
  </diagram>
</mxfile>
